<svg xmlns="http://www.w3.org/2000/svg" width="1200" height="520" viewBox="0 0 1200 520" role="img" aria-labelledby="title desc">
<title id="title">Cluster2 CAV population flow</title>
<desc id="desc">Generated only from the sealed official Cluster2 CAV functional result.</desc>
<style>
text{font-family:Arial,sans-serif;fill:#172033}.title{font-size:28px;font-weight:700}.subtitle{font-size:15px;fill:#526075}.label{font-size:18px;font-weight:700}.value{font-size:30px;font-weight:700}.small{font-size:14px;fill:#526075}.axis{stroke:#8793a6;stroke-width:1}.box{fill:#f4f7fb;stroke:#526075;stroke-width:2}.world{fill:#dff5ed;stroke:#16856b;stroke-width:2}.bypass{fill:#fff0dc;stroke:#c97512;stroke-width:2}.accent{fill:#3167d5}.muted{fill:#a9b6c8}.hold{fill:#fff8e8;stroke:#c98a16;stroke-width:1.5}.arrow{stroke:#526075;stroke-width:2;fill:none;marker-end:url(#arrow)}
</style>
<defs><marker id="arrow" markerWidth="10" markerHeight="10" refX="9" refY="3" orient="auto"><path d="M0,0 L0,6 L9,3 z" fill="#526075"/></marker></defs>

<text x="50" y="55" class="title">Population flow</text>
<text x="50" y="82" class="subtitle">Official inputs → exact native join → software CAV decisions</text>
<rect x="50" y="130" width="235" height="150" rx="12" class="box"/>
<text x="75" y="165" class="label">Official UZH source</text>
<text x="75" y="210" class="value">8503 events</text>
<text x="75" y="242" class="small">11883 poses</text>
<path d="M285 205 H365" class="arrow"/>
<rect x="365" y="130" width="235" height="150" rx="12" class="box"/>
<text x="390" y="165" class="label">Native identity join</text>
<text x="390" y="210" class="value">8503 joined</text>
<text x="390" y="242" class="small">0 overrun</text>
<path d="M600 205 H680" class="arrow"/>
<rect x="680" y="110" width="225" height="105" rx="12" class="world"/>
<text x="705" y="145" class="label">WORLD</text>
<text x="705" y="184" class="value">8420</text>
<rect x="680" y="235" width="225" height="105" rx="12" class="bypass"/>
<text x="705" y="270" class="label">SENSOR_FIXED</text>
<text x="705" y="309" class="value">83</text>
<rect x="955" y="130" width="195" height="150" rx="12" class="box"/>
<text x="980" y="165" class="label">Three views</text>
<text x="980" y="202" class="small">RAW-CAV</text>
<text x="980" y="228" class="small">AER-OCC-CAV</text>
<text x="980" y="254" class="small">AER-RET-CAV</text>
<text x="50" y="400" class="label">Mode partition</text>
<text x="50" y="435" class="small">causal CAV 8420  •  ZOH fallback 0  •  sensor-fixed bypass 83</text>
<text x="50" y="472" class="small">All three views share one geometry digest: yes</text>

</svg>
